<svg width="62" height="62" viewBox="0 0 62 62" fill="none" xmlns="http://www.w3.org/2000/svg">
<rect x="0.5" y="0.5" width="61" height="61" rx="30.5" fill="#037F4D"/>
<rect x="0.5" y="0.5" width="61" height="61" rx="30.5" stroke="#05A565"/>
<path d="M39.6866 38.0199L38.3495 36.3485L38.34 36.3362C38.0612 35.9877 37.9206 35.8119 37.8203 35.6157C37.7304 35.4397 37.6649 35.252 37.6252 35.0584C37.5804 34.8402 37.5804 34.6129 37.5804 34.1566L37.5804 24.6354C37.5804 23.4093 37.5804 22.7956 37.3416 22.3268C37.1313 21.9141 36.7954 21.5783 36.3826 21.368C35.9139 21.1292 35.3008 21.1292 34.0747 21.1292L25.7319 21.1292C24.5058 21.1292 23.8918 21.1292 23.423 21.368C23.0103 21.5783 22.675 21.9148 22.4647 22.3275C22.2256 22.7967 22.2256 23.4101 22.2256 24.6386L22.2256 37.3612C22.2256 38.5897 22.2256 39.2044 22.4647 39.6736C22.675 40.0864 23.0103 40.4217 23.423 40.632C23.8923 40.8711 24.507 40.8711 25.7355 40.8711L38.3166 40.8711C39.4854 40.8711 40.0697 40.8711 40.3699 40.6315C40.6309 40.4231 40.7828 40.1073 40.7824 39.7732C40.782 39.3892 40.4168 38.9326 39.6866 38.0199Z" stroke="white" stroke-width="2.19355" stroke-linecap="round" stroke-linejoin="round"/>
</svg>
