<svg width="62" height="62" viewBox="0 0 62 62" fill="none" xmlns="http://www.w3.org/2000/svg">
<rect x="0.5" y="0.5" width="61" height="61" rx="30.5" fill="#037F4D"/>
<rect x="0.5" y="0.5" width="61" height="61" rx="30.5" stroke="#05A565"/>
<path d="M24.5996 38.9203L26.1236 37.7012L26.1348 37.6926C26.4525 37.4384 26.6128 37.3101 26.7917 37.2188C26.9522 37.1368 27.1233 37.0771 27.2998 37.0408C27.4988 37 27.706 37 28.1221 37H36.8031C37.921 37 38.4806 37 38.908 36.7822C39.2843 36.5905 39.5905 36.2842 39.7822 35.9079C40 35.4805 40 34.9215 40 33.8036V26.1969C40 25.079 40 24.5192 39.7822 24.0918C39.5905 23.7155 39.2837 23.4097 38.9074 23.218C38.4796 23 37.9203 23 36.8002 23H25.2002C24.0801 23 23.5196 23 23.0918 23.218C22.7155 23.4097 22.4097 23.7155 22.218 24.0918C22 24.5196 22 25.0801 22 26.2002V37.6712C22 38.7369 22 39.2696 22.2185 39.5433C22.4084 39.7813 22.6964 39.9198 23.001 39.9195C23.3512 39.9191 23.7674 39.5861 24.5996 38.9203Z" stroke="white" stroke-width="2" stroke-linecap="round" stroke-linejoin="round"/>
</svg>
